<svg xmlns="http://www.w3.org/2000/svg" xmlns:xlink="http://www.w3.org/1999/xlink" viewBox="0 0 48 48"><defs><linearGradient id="amazonA" x1="24" x2="24" y2="48" gradientUnits="userSpaceOnUse"><stop offset="0" stop-color="#40f"/><stop offset="0.13" stop-color="#40f"/><stop offset="0.25" stop-color="#4104ef"/><stop offset="0.5" stop-color="#3a0dc3"/><stop offset="1" stop-color="#2b216d"/></linearGradient></defs><path d="M5.05,43c-3.68-3.68-5-9.68-5-19S1.37,8.73,5.05,5.05s9.68-5,19-5S39.27,1.37,43,5.05s5,9.68,5,19-1.37,15.27-5,19-9.68,5-19,5S8.73,46.63,5.05,43Z" fill="url(#amazonA)"/><path d="M29.8,23a1.86,1.86,0,0,1-1,.27A6.36,6.36,0,0,1,26.83,23a2,2,0,0,0-.35-.08c-.12,0-.16.08-.16.24v.39a.58.58,0,0,0,.08.28.65.65,0,0,0,.23.16,5.44,5.44,0,0,0,2.14.39,3.13,3.13,0,0,0,2-.59,1.88,1.88,0,0,0,.75-1.58A1.85,1.85,0,0,0,31.15,21,2.74,2.74,0,0,0,30,20.26l-1.11-.44a2.28,2.28,0,0,1-.87-.47.75.75,0,0,1-.24-.6c0-.59.44-.91,1.35-.91a4.71,4.71,0,0,1,1.5.24c.16,0,.28.08.32.08s.2-.08.2-.24v-.39a.58.58,0,0,0-.08-.28.37.37,0,0,0-.24-.16A5.57,5.57,0,0,0,29,16.77a3,3,0,0,0-1.86.56,1.74,1.74,0,0,0-.71,1.46,2.06,2.06,0,0,0,1.54,2l1.19.44a2.23,2.23,0,0,1,.79.43.7.7,0,0,1,.2.56A.87.87,0,0,1,29.8,23Zm-6.21-5.7v5.26a3.73,3.73,0,0,1-2,.68,1.16,1.16,0,0,1-.95-.36,1.68,1.68,0,0,1-.28-1.11V17.25c0-.2-.08-.28-.27-.28h-.84c-.19,0-.27.08-.27.28v4.91a2.21,2.21,0,0,0,.51,1.58,2.09,2.09,0,0,0,1.55.55,4.51,4.51,0,0,0,2.69-.95l.08.48a.19.19,0,0,0,.11.2s.12,0,.24,0h.6c.19,0,.27-.08.27-.28V17.25c0-.2-.08-.28-.27-.28H23.9C23.67,17,23.59,17.09,23.59,17.25ZM16.07,24.1h.83c.2,0,.28-.08.28-.28V18.87a2.06,2.06,0,0,0-.52-1.54,2,2,0,0,0-1.5-.56,4.68,4.68,0,0,0-2.77,1,1.78,1.78,0,0,0-1.78-1A4.66,4.66,0,0,0,8,17.68l-.08-.43a.18.18,0,0,0-.12-.2.3.3,0,0,0-.2,0H7c-.2,0-.28.08-.28.28v6.57c0,.2.08.27.28.27H7.8c.2,0,.28-.07.28-.27V18.52a4,4,0,0,1,2.05-.64.9.9,0,0,1,.83.36,1.76,1.76,0,0,1,.28,1v4.55c0,.2.08.28.28.28h.83c.2,0,.28-.08.28-.28v-5.3a3.83,3.83,0,0,1,2-.64.9.9,0,0,1,.83.36,1.76,1.76,0,0,1,.28,1v4.55C15.79,24,15.87,24.1,16.07,24.1Zm21.57,5.26a35,35,0,0,1-13.3,2.73A34.91,34.91,0,0,1,6.93,27.46a.57.57,0,0,0-.24-.08c-.28,0-.43.32-.16.59a25.78,25.78,0,0,0,17.41,6.65,25.11,25.11,0,0,0,14.25-4.35C38.86,29.79,38.31,29.08,37.64,29.36Zm-.12-10.8a2.14,2.14,0,0,1,1.7-.6,3.68,3.68,0,0,1,1.15.16.53.53,0,0,0,.23,0c.12,0,.2-.08.2-.28v-.39a.47.47,0,0,0-.08-.28.87.87,0,0,0-.2-.16,6.78,6.78,0,0,0-1.5-.24,3.31,3.31,0,0,0-2.57,1,4,4,0,0,0-.91,2.77,3.85,3.85,0,0,0,.87,2.73,3.24,3.24,0,0,0,2.53.95A4,4,0,0,0,40.52,24a.37.37,0,0,0,.24-.16s0-.16,0-.28v-.39c0-.2-.08-.28-.2-.28a.38.38,0,0,0-.19,0,4.92,4.92,0,0,1-1.27.2,2.1,2.1,0,0,1-1.66-.6A2.72,2.72,0,0,1,37,20.65v-.2A3,3,0,0,1,37.52,18.56ZM39.3,33.08c2.06-1.74,2.61-5.34,2.17-5.9a4.07,4.07,0,0,0-2.33-.47,7,7,0,0,0-3.92,1.07c-.35.23-.28.55.08.51,1.23-.16,4-.48,4.51.16s-.55,3.24-1,4.39C38.66,33.2,38.94,33.32,39.3,33.08ZM33.8,17H33c-.2,0-.28.08-.28.28v6.57c0,.2.08.28.28.28h.83c.19,0,.27-.08.27-.28V17.25A.25.25,0,0,0,33.8,17ZM34,14.28a.9.9,0,0,0-.67-.24.82.82,0,0,0-.63.24.81.81,0,0,0-.24.59.75.75,0,0,0,.24.6.82.82,0,0,0,.63.24.82.82,0,0,0,.87-.84A.72.72,0,0,0,34,14.28Z" fill="#fff"/></svg>
